<?xml version="1.0" standalone="no"?><!DOCTYPE svg PUBLIC "-//W3C//DTD SVG 1.1//EN" "http://www.w3.org/Graphics/SVG/1.1/DTD/svg11.dtd"><svg t="1551943586980" class="icon" style="" viewBox="0 0 1024 1024" version="1.1" xmlns="http://www.w3.org/2000/svg" p-id="1748" xmlns:xlink="http://www.w3.org/1999/xlink" width="64" height="64"><path d="M535.076 390.86l-23.911-116.403-22.107 116.132c-24.093 4.331-47.193 15.79-65.872 34.38-48.547 48.637-48.547 127.321 0 175.867 48.547 48.546 127.322 48.546 175.867 0 48.638-48.638 48.638-127.322 0-175.868-18.136-18.137-40.514-29.597-63.976-34.11v0.003z m301.198 447.101l-204.76-204.76c-21.94 21.938-48.37 36.564-76.263 44.085l75.008 279.874c-38.34 10.238-78.352 15.462-119.095 15.462s-80.65-5.327-118.99-15.462l75.008-279.874c-27.998-7.416-54.323-22.146-76.263-44.085L186.161 837.96c-59.13-59.13-98.83-130.585-118.885-206.117l279.664-74.906a170.148 170.148 0 0 1 0-88.068L67.275 393.966c20.056-75.531 59.652-146.988 118.782-206.117l204.76 204.76c21.938-21.938 48.265-36.564 76.263-44.085L392.177 68.649a465.247 465.247 0 0 1 118.99-15.46c40.743 0 80.65 5.327 119.095 15.46l-75.01 279.875c27.893 7.417 54.325 22.146 76.263 44.086l204.76-204.763c57.983 57.982 98.62 128.812 119.2 206.015L675.497 468.87a170.105 170.105 0 0 1 0 88.068l279.874 75.01c-20.58 77.203-61.115 148.034-119.094 206.013h-0.003z m36.37-686.484C776.037 54.974 647.74 1.814 511.165 1.814c-136.477 0-264.872 53.16-361.376 149.662C53.183 247.981 0.025 376.38 0.025 512.853c0 136.577 53.159 264.872 149.764 361.48 96.504 96.605 224.903 149.66 361.376 149.66 136.577 0 264.872-53.159 361.479-149.66 96.604-96.505 149.661-224.904 149.661-361.48 0-136.476-53.159-264.872-149.661-361.376" p-id="1749"></path></svg>