<?xml version="1.0" standalone="no"?><!DOCTYPE svg PUBLIC "-//W3C//DTD SVG 1.1//EN" "http://www.w3.org/Graphics/SVG/1.1/DTD/svg11.dtd"><svg t="1551943542700" class="icon" style="" viewBox="0 0 1024 1024" version="1.1" xmlns="http://www.w3.org/2000/svg" p-id="2401" xmlns:xlink="http://www.w3.org/1999/xlink" width="64" height="64"><path d="M423.773184 787.821568a280.385536 280.385536 0 0 1 7.405568-63.973376H143.593472V120.644608h482.561024v398.138368c19.347456-5.59616 39.532544-9.150464 60.32896-10.46016V90.49088c0-49.760256-40.717312-90.49088-90.487808-90.49088h-422.2464C123.990016 0 83.27168 40.728576 83.27168 90.49088v784.157696c0 49.77152 40.718336 90.49088 90.477568 90.49088h313.39008c-39.61344-48.33792-63.407104-110.083072-63.366144-177.317888M264.237056 45.246464h241.292288v30.166016H264.237056V45.246464m440.042496 506.616832c-130.37056 0-236.242944 105.710592-236.32384 235.974656C467.872768 918.1696 574.01344 1024.062464 704.626688 1024c130.004992-0.038912 235.896832-105.8304 236.101632-235.793408 0.18432-130.348032-105.8304-236.32384-236.448768-236.343296m107.507712 331.410432c-3.982336 2.758656-9.049088 4.146176-15.158272 4.146176h-64.316416v18.368512c0 5.518336-2.28864 10.870784-6.887424 16.077824-4.593664 5.210112-10.560512 7.498752-17.915904 6.887424-7.354368 0-13.461504-1.677312-18.368512-5.045248-4.901888-3.372032-7.660544-9.337856-8.27392-17.924096v-18.364416h-62.478336c-6.109184 0-11.175936-1.676288-15.161344-5.04832-3.981312-3.36896-5.6576-7.49568-5.045248-12.40064 0-5.515264 1.98144-9.94816 5.965824-13.341696 3.985408-3.372032 8.725504-5.045248 14.239744-5.045248h62.481408v-32.156672h-62.481408c-6.109184 0-11.011072-1.818624-14.688256-5.49888-3.67616-3.67616-5.518336-7.965696-5.518336-12.87168 0-4.882432 1.98144-9.480192 5.965824-13.768704 3.985408-4.289536 8.725504-6.43584 14.239744-6.43584h62.481408l0.917504-19.288064c-11.0336-11.030528-21.127168-21.429248-30.317568-31.236096a4977.62816 4977.62816 0 0 1-22.047744-23.885824l-13.792256-12.87168c-3.063808-3.680256-5.820416-8.725504-8.252416-15.161344-2.451456-6.431744-1.224704-13.014016 3.677184-19.734528 5.494784-6.130688 12.238848-7.803904 20.205568-5.067776 7.968768 2.755584 14.38208 6.270976 19.288064 10.563584 2.451456 3.06688 6.744064 7.660544 12.849152 13.792256l19.306496 19.288064 24.804352 24.803328a5895.800832 5895.800832 0 0 1 28.480512-26.64448c7.33696-6.744064 14.70976-13.323264 22.043648-19.755008 7.356416-6.417408 12.566528-10.867712 15.61088-13.323264 5.518336-4.883456 11.64288-7.333888 18.386944-7.333888 6.740992 0 12.238848 2.737152 16.529408 8.255488 7.965696 9.192448 4.901888 19.898368-9.171968 32.156672-3.680256 3.063808-9.194496 8.41728-16.551936 16.077824a1367.517184 1367.517184 0 0 1-22.043648 22.495232c-8.582144 9.191424-18.060288 18.695168-28.480512 28.480512v17.46944h59.718656c8.582144 0 14.85312 1.984512 18.837504 5.965824 3.985408 3.984384 5.965824 8.41728 5.965824 13.32224 0 5.515264-1.83808 10.25536-5.515264 14.239744-3.680256 3.985408-9.807872 5.680128-18.367488 5.045248l-59.718656 0.920576-0.920576 31.239168h58.79808c17.14176 0 25.723904 6.43584 25.723904 19.30752 0.616448 6.109184-1.05984 10.560512-5.044224 13.300736m0 0z" p-id="2402"></path></svg>