<?xml version="1.0" standalone="no"?><!DOCTYPE svg PUBLIC "-//W3C//DTD SVG 1.1//EN" "http://www.w3.org/Graphics/SVG/1.1/DTD/svg11.dtd"><svg t="1557456520471" class="icon" style="" viewBox="0 0 1024 1024" version="1.1" xmlns="http://www.w3.org/2000/svg" p-id="1862" xmlns:xlink="http://www.w3.org/1999/xlink" width="200" height="200"><defs><style type="text/css"></style></defs><path d="M818.573839 957.310112 203.995579 957.310112c-14.131859 0-25.587771-11.45489-25.587771-25.587771L178.407808 93.660146c0-14.131859 11.455913-25.586748 25.587771-25.586748l460.935997 0c14.131859 0 25.586748 11.455913 25.586748 25.586748s-11.45489 25.587771-25.586748 25.587771L229.582327 119.247918l0 786.887674 563.40374 0L792.986067 244.508783c0-14.131859 11.455913-25.587771 25.587771-25.587771 14.132882 0 25.587771 11.455913 25.587771 25.587771l0 687.214581C844.16161 945.855222 832.705698 957.310112 818.573839 957.310112z" p-id="1863"></path><path d="M818.573839 270.095531 664.930553 270.095531c-14.132882 0-25.587771-11.455913-25.587771-25.586748L639.342782 93.64582c0-10.30674 6.183839-19.60757 15.687284-23.595394 9.507538-3.987824 20.47431-1.882883 27.826765 5.337565l153.643286 150.86194c7.414877 7.280824 9.69071 18.323321 5.758144 27.941376C838.324672 263.810385 828.965513 270.095531 818.573839 270.095531zM690.517301 218.921012l65.475224 0-65.475224-64.290235L690.517301 218.921012z" p-id="1864"></path><path d="M711.868585 570.934251 324.738547 570.934251c-14.131859 0-25.586748-11.45489-25.586748-25.587771s11.455913-25.586748 25.586748-25.586748l387.130038 0c14.132882 0 25.587771 11.45489 25.587771 25.586748S726.001467 570.934251 711.868585 570.934251z" p-id="1865"></path><path d="M711.868585 453.613218 324.738547 453.613218c-14.131859 0-25.586748-11.455913-25.586748-25.587771s11.455913-25.586748 25.586748-25.586748l387.130038 0c14.132882 0 25.587771 11.455913 25.587771 25.586748S726.001467 453.613218 711.868585 453.613218z" p-id="1866"></path><path d="M711.868585 688.267563 324.738547 688.267563c-14.131859 0-25.586748-11.45489-25.586748-25.587771s11.455913-25.587771 25.586748-25.587771l387.130038 0c14.132882 0 25.587771 11.45489 25.587771 25.587771S726.001467 688.267563 711.868585 688.267563z" p-id="1867"></path><path d="M711.868585 805.601898 324.738547 805.601898c-14.131859 0-25.586748-11.45489-25.586748-25.587771s11.455913-25.587771 25.586748-25.587771l387.130038 0c14.132882 0 25.587771 11.45489 25.587771 25.587771S726.001467 805.601898 711.868585 805.601898z" p-id="1868"></path></svg>