<?xml version="1.0" standalone="no"?><!DOCTYPE svg PUBLIC "-//W3C//DTD SVG 1.1//EN" "http://www.w3.org/Graphics/SVG/1.1/DTD/svg11.dtd"><svg t="1553157406120" class="icon" style="" viewBox="0 0 1024 1024" version="1.1" xmlns="http://www.w3.org/2000/svg" p-id="6792" xmlns:xlink="http://www.w3.org/1999/xlink" width="64" height="64"><defs><style type="text/css"></style></defs><path d="M512 0c281.6 0 512 230.4 512 512 0 281.6-230.4 512-512 512S0 793.6 0 512C0 230.4 230.4 0 512 0z" p-id="6793"></path><path d="M812.8 393.6l44.8-48L800 291.2l0 0-38.4-41.6-22.4-70.4-22.4 54.4 0 0-25.6 28.8-121.6 131.2L294.4 393.6l0 0-3.2-3.2-83.2 64 0 3.2L201.6 457.6 201.6 576l60.8 0 0-105.6 16-12.8L294.4 448l0 128 54.4 0-16 9.6L320 588.8 320 576 259.2 576l0 240L320 816l0-198.4 99.2 198.4 51.2-28.8-108.8-214.4 249.6 0 3.2 3.2-28.8 0 0 240 60.8 0L646.4 576l-25.6 0 3.2-3.2 22.4 0 0-38.4 41.6-67.2 16-25.6 51.2-3.2 0 0 0 0 3.2 0 0-3.2L812.8 393.6 812.8 393.6zM716.8 428.8l51.2-80 6.4 6.4 25.6 25.6-48 48-12.8 0L716.8 428.8z" fill="#333333"></path></svg>