<?xml version="1.0" standalone="no"?><!DOCTYPE svg PUBLIC "-//W3C//DTD SVG 1.1//EN" "http://www.w3.org/Graphics/SVG/1.1/DTD/svg11.dtd"><svg t="1553502697761" class="icon" style="" viewBox="0 0 1024 1024" version="1.1" xmlns="http://www.w3.org/2000/svg" p-id="2535" xmlns:xlink="http://www.w3.org/1999/xlink" width="64" height="64"><defs><style type="text/css"></style></defs><path d="M914.897 119.963h-98.192v-12.405c0-27.175-22.07-49.203-49.294-49.203H251.827c-27.225 0-49.294 22.029-49.294 49.203v12.405h-93.431c-58.533 0-106.155 47.533-106.156 105.958V348.53c0 121.417 97.43 220.547 218.354 223.59 35.525 87.237 118.201 148.312 219.427 148.312h24.245c0.089 0 0.162 0.072 0.162 0.162v146.804a0.161 0.161 0 0 1-0.162 0.162H316.64c-26.132 0-47.496 20.36-49.044 46.053-1.71 28.366 21.613 52.033 50.082 52.033h392.033c26.128 0 47.496-20.36 49.043-46.053 1.709-28.366-21.614-52.033-50.084-52.033h-145.11a0.161 0.161 0 0 1-0.161-0.162V720.59c0-0.088 0.071-0.16 0.16-0.16 101.106-0.065 192.155-61.1 231.946-148.258 0.49 0.006 0.977 0.019 1.467 0.019 123.557 0 224.078-100.333 224.078-223.661V225.92c0.002-58.425-47.618-105.958-106.154-105.958zM62.944 348.53V225.922c0-25.405 20.707-46.073 46.158-46.073h93.43v295.207c0 12.15 0.837 24.087 2.434 35.763-80.08-10.788-142.022-79.45-142.022-162.29z m623.06-70.007l-79.974 83.102c-0.017 0.047-0.03 0.087-0.044 0.134l14.52 113.17a0.16 0.16 0 0 1-0.225 0.166l-105.947-48.4h-0.133l-105.946 48.4a0.16 0.16 0 0 1-0.226-0.166l14.522-113.17c-0.017-0.047-0.029-0.087-0.044-0.134l-79.977-83.102a0.163 0.163 0 0 1 0.09-0.27l114.9-21.51c0.04-0.027 0.072-0.052 0.11-0.078l56.64-100.226 56.639 100.226 0.111 0.077 114.901 21.51c0.122 0.025 0.172 0.18 0.083 0.271z m275.051 70.007c0 84.618-64.628 154.453-147.202 162.913a231.77 231.77 0 0 0 2.852-36.227V179.85h98.192c25.453 0 46.158 20.668 46.158 46.071v122.61z" fill="" p-id="2536"></path></svg>