<?xml version="1.0" standalone="no"?><!DOCTYPE svg PUBLIC "-//W3C//DTD SVG 1.1//EN" "http://www.w3.org/Graphics/SVG/1.1/DTD/svg11.dtd"><svg t="1537171678830" class="icon" style="" viewBox="0 0 1024 1024" version="1.1" xmlns="http://www.w3.org/2000/svg" p-id="1853" xmlns:xlink="http://www.w3.org/1999/xlink" width="64" height="64"><defs><style type="text/css"></style></defs><path d="M920.576 318.976h-133.12l-189.952-168.96c4.096-10.24 6.144-20.992 6.144-32.768 0-47.616-38.912-86.528-86.528-86.528s-86.528 38.912-86.528 86.528c0 11.776 2.048 22.528 6.144 32.768l-189.952 168.96h-133.12c-32.256 0-57.856 25.6-57.856 57.344v518.656c0 31.744 25.6 57.344 57.856 57.344h806.4c32.256 0 57.856-25.6 57.856-57.344V376.32c0.512-31.744-25.6-57.344-57.344-57.344zM475.648 193.024c12.288 6.656 26.624 10.752 41.984 10.752s29.184-4.096 41.984-10.752L701.44 318.976H333.824l141.824-125.952zM200.704 492.032h256.512c15.872 0 28.672 12.8 28.672 28.672 0 15.872-12.8 28.672-28.672 28.672H200.704c-15.872 0-28.672-12.8-28.672-28.672 0-15.872 12.8-28.672 28.672-28.672z m433.664 287.744H200.704c-15.872 0-28.672-12.8-28.672-28.672s12.8-28.672 28.672-28.672h433.664c15.872 0 28.672 12.8 28.672 28.672s-12.8 28.672-28.672 28.672z m171.52-143.872c0 15.872-12.8 28.672-28.672 28.672H200.704c-15.872 0-28.672-12.8-28.672-28.672 0-15.872 12.8-28.672 28.672-28.672h576c15.872 0 29.184 12.8 29.184 28.672z" p-id="1854"></path></svg>