<?xml version="1.0" standalone="no"?><!DOCTYPE svg PUBLIC "-//W3C//DTD SVG 1.1//EN" "http://www.w3.org/Graphics/SVG/1.1/DTD/svg11.dtd"><svg t="1536112263104" class="icon" style="" viewBox="0 0 1024 1024" version="1.1" xmlns="http://www.w3.org/2000/svg" p-id="3084" xmlns:xlink="http://www.w3.org/1999/xlink" width="64" height="64"><defs><style type="text/css"></style></defs><path d="M376.361 282.355c0-82.746-69.886-149.885-156.199-149.885-86.193 0.06-156.139 67.138-156.139 149.885 0 40.271 16.605 76.849 43.544 103.835-7.347 29.548-11.17 60.287-11.17 91.98 0 142.498 78.189 267.541 195.622 337.598l31.24-123.077C259.466 641.34 218.848 564.372 218.848 478.23c0-15.668 1.314-31.037 3.942-45.93 85.118-1.43 153.571-67.973 153.571-149.945z m133.978-83.699c53.997 0 104.471 14.059 147.896 38.663-6.869 16.859-10.513 35.148-10.513 54.271 0 82.806 69.886 149.885 156.079 149.885S960 374.336 960 291.589s-70.006-149.885-156.199-149.885c-20.189 0-39.542 3.693-57.163 10.366C679.559 107.272 598.264 81 510.339 81c-59.493 0-116.059 12.093-167.189 33.778l71.38 99.308c29.985-10.009 62.24-15.43 95.809-15.43zM801.352 490.74c-4.659 101.869-66.243 189.62-154.944 234.716-25.804-48.552-78.428-81.793-139.115-81.793-86.312 0-156.199 67.138-156.199 149.885s69.886 149.944 156.199 149.944c64.69 0 120.36-37.829 143.894-91.682 159.245-55.343 272.974-201.772 272.974-373.58 0-8.817-0.358-17.514-0.956-26.152L801.352 490.74z" p-id="3085"></path></svg>