<?xml version="1.0" standalone="no"?><!DOCTYPE svg PUBLIC "-//W3C//DTD SVG 1.1//EN" "http://www.w3.org/Graphics/SVG/1.1/DTD/svg11.dtd"><svg t="1551943458993" class="icon" style="" viewBox="0 0 1024 1024" version="1.1" xmlns="http://www.w3.org/2000/svg" p-id="2085" xmlns:xlink="http://www.w3.org/1999/xlink" width="64" height="64"><path d="M512 0c282.763636 0 512 229.236364 512 512s-229.236364 512-512 512S0 794.763636 0 512 229.236364 0 512 0zM255.301818 364.125091c-47.941818 0-85.480727 15.499636-112.477091 46.848-25.949091 29.393455-38.702545 67.537455-38.702545 114.804364 0 46.894545 12.8 85.015273 38.749091 114.432 27.275636 30.813091 65.000727 46.382545 112.430545 46.382545 47.243636 0 84.852364-15.313455 112.407273-45.917091 26.181818-29.230545 39.191273-67.490909 39.191273-114.897454 0-47.476364-13.056-86.132364-39.191273-115.316364-27.461818-30.952727-65.024-46.336-112.407273-46.336z m0 54.784c29.626182 0 51.712 9.122909 67.165091 27.648 15.453091 19.037091 23.365818 45.451636 23.365818 79.220364 0 33.698909-7.866182 59.717818-23.365818 78.382545-15.616 18.362182-37.934545 27.648-67.165091 27.648-29.323636 0-51.944727-9.751273-67.537454-28.858182-15.36-18.897455-22.993455-44.357818-22.993455-77.172363 0-33.163636 7.610182-58.647273 22.993455-77.591273 16.058182-19.549091 38.283636-29.277091 67.537454-29.277091z m149.038546 4.608h98.024727V680.727273h60.648727V423.517091h98.024727v-53.527273h-256.698181v53.527273z m402.385454-59.392c-49.687273 0-87.738182 16.384-113.896727 49.570909-22.923636 28.532364-34.350545 66.141091-34.350546 112.081455 0 46.661818 10.938182 83.874909 33.093819 111.70909 25.553455 32.581818 64.651636 49.105455 115.991272 49.105455 33.536 0 62.487273-9.634909 86.574546-28.928 25.809455-20.549818 42.030545-48.989091 49.012363-85.550545l1.303273-6.912h-59.275636l-1.140364 4.352c-5.585455 21.573818-15.034182 37.608727-28.16 48.011636-12.404364 9.309091-28.858182 14.242909-48.733091 14.242909-30.789818 0-53.457455-9.611636-67.863272-28.322909-13.335273-17.640727-20.154182-43.636364-20.154182-77.707636 0-33.373091 6.865455-58.88 20.596363-76.916364 14.731636-20.154182 36.328727-29.952 66.164364-29.952 20.247273 0 36.142545 4.072727 48.221091 12.381091 12.590545 8.378182 21.038545 21.387636 25.739636 39.796363l1.117091 4.375273h59.042909l-1.024-6.702545c-4.864-31.813818-18.711273-57.320727-41.472-75.682909-23.621818-19.269818-54.225455-28.951273-90.786909-28.951273z" p-id="2086"></path></svg>