<?xml version="1.0" standalone="no"?><!DOCTYPE svg PUBLIC "-//W3C//DTD SVG 1.1//EN" "http://www.w3.org/Graphics/SVG/1.1/DTD/svg11.dtd"><svg t="1535782889962" class="icon" style="" viewBox="0 0 1024 1024" version="1.1" xmlns="http://www.w3.org/2000/svg" p-id="1058" xmlns:xlink="http://www.w3.org/1999/xlink" width="64" height="64"><defs><style type="text/css"></style></defs><path d="M1004.06087 623.104266l-95.417011-72.447111 1.210167-8.447897a232.724417 232.724417 0 0 0 1.210167-28.97419 200.142998 200.142998 0 0 0-2.327244-28.974189l-1.210167-8.447897 95.417011-72.447111a46.544883 46.544883 0 0 0 10.86823-61.57888l-99.000967-167.840849a50.71065 50.71065 0 0 0-43.472921-24.156795 81.453546 81.453546 0 0 0-16.895792 2.327244l-112.289531 43.472921-6.027563-4.840668a378.479719 378.479719 0 0 0-53.130984-30.254174l-7.237729-3.630501-16.895793-115.920031A48.197227 48.197227 0 0 0 610.454064 0.007913h-200.422267a48.243772 48.243772 0 0 0-48.290317 39.84242l-15.708898 115.920032-7.237729 3.630501a306.498057 306.498057 0 0 0-53.130984 30.254174l-6.050835 3.630501-112.289531-43.472921a38.376256 38.376256 0 0 0-16.895793-2.327245 48.70922 48.70922 0 0 0-42.262754 24.156795L7.953822 340.693186a48.127409 48.127409 0 0 0 10.868231 61.578881l90.55307 68.839882 4.817396 8.447896v6.027563a205.449115 205.449115 0 0 0-1.210167 26.577128 243.383195 243.383195 0 0 0 1.210167 28.97419l1.210167 8.447896-95.417011 72.447111a46.544883 46.544883 0 0 0-10.868231 61.578881l99.000967 167.840849a50.733923 50.733923 0 0 0 43.472921 24.156795 81.453546 81.453546 0 0 0 16.895793-2.327245l112.289531-43.472921 6.027562 3.630501a378.456446 378.456446 0 0 0 53.130985 30.254174l7.237729 3.630501 16.895793 115.920032A48.360134 48.360134 0 0 0 412.428858 1023.995346h200.422268a48.243772 48.243772 0 0 0 48.220499-39.842421l16.895793-115.920031 7.237729-3.630501a306.451512 306.451512 0 0 0 53.130984-30.254175l6.027563-3.6305 112.289531 43.472921a38.376256 38.376256 0 0 0 16.895792 2.327244 46.335431 46.335431 0 0 0 42.262754-24.156795l100.211134-169.051016a45.520896 45.520896 0 0 0-11.962035-60.205806z m-492.631045 101.4213a210.103603 210.103603 0 1 1 210.150148-210.196693 210.243238 210.243238 0 0 1-210.150148 210.196693z" p-id="1059"></path></svg>